<svg xmlns="http://www.w3.org/2000/svg" width="66" height="60" fill="none"><g clip-path="url(#a)"><path fill="#1273EB" d="M52.348 18.047h-26.59c-4.195 0-7.617 3.422-7.617 7.617v26.59c0 4.195 3.422 7.617 7.617 7.617h26.59c4.195 0 7.617-3.422 7.617-7.617v-26.59c0-4.195-3.41-7.617-7.617-7.617Zm-26.59 5.86h26.59c.972 0 1.758.784 1.758 1.757v22.898l-2.157-2.19a2.917 2.917 0 0 0-2.086-.88h-.011c-.786 0-1.547.328-2.086.89l-3.973 4.102-10.113-10.16a2.925 2.925 0 0 0-4.137-.011l-5.531 5.484V25.664a1.738 1.738 0 0 1 1.746-1.758Z"/><path fill="#1273EB" d="M45.28 37.992a4.277 4.277 0 1 0-1.966-8.325 4.277 4.277 0 0 0 1.965 8.325Z"/><path fill="#1D262D" d="M30.984 5.953H23.45a2.93 2.93 0 0 1 0-5.86h7.535a2.93 2.93 0 0 1 0 5.86ZM51.352 13.219a2.93 2.93 0 0 1-2.93-2.93V8.883a2.93 2.93 0 0 0-2.93-2.93h-1.394a2.93 2.93 0 0 1 0-5.86h1.394c4.852 0 8.79 3.938 8.79 8.79v1.406a2.93 2.93 0 0 1-2.93 2.93ZM10.23 54.234H8.941c-4.851 0-8.789-3.937-8.789-8.789v-1.289a2.93 2.93 0 0 1 5.86 0v1.29a2.93 2.93 0 0 0 2.93 2.929h1.288a2.93 2.93 0 0 1 0 5.86ZM3.082 13.219a2.93 2.93 0 0 1-2.93-2.93V8.883c0-4.852 3.938-8.79 8.79-8.79h1.288a2.93 2.93 0 0 1 0 5.86H8.941a2.93 2.93 0 0 0-2.93 2.93v1.406a2.93 2.93 0 0 1-2.929 2.93ZM3.082 33.855a2.93 2.93 0 0 1-2.93-2.93v-7.523a2.93 2.93 0 0 1 5.86 0v7.524a2.93 2.93 0 0 1-2.93 2.93Z"/></g><path fill="#1D262D" d="m65.181 48.413-3.753-3.753 2.678-1.547a.63.63 0 0 0-.082-1.131l-11.94-4.763a.63.63 0 0 0-.82.82l4.762 11.94a.63.63 0 0 0 1.132.081l1.547-2.677 3.753 3.753a.63.63 0 0 0 .892 0l1.831-1.832a.63.63 0 0 0 0-.891Z"/><defs><clipPath id="a"><path fill="#fff" d="M0 0h60v60H0z"/></clipPath></defs></svg>